<svg viewBox="40 -716 3997.0 732" xmlns="http://www.w3.org/2000/svg">
<g transform="scale(1,-1)" fill="none" stroke="currentColor" stroke-width="14.0">
  <path d="M40 0V700H569Q679 700 734.5 652.0Q790 604 790 526Q790 487 773.0 451.5Q756 416 716.5 392.0Q677 368 609 363V343Q715 337 763.5 292.5Q812 248 812 180Q812 101 755.5 50.5Q699 0 601 0ZM316 427H461Q480 427 491.0 438.0Q502 449 502 467Q502 485 491.0 496.0Q480 507 461 507H316ZM316 193H477Q496 193 507.0 204.0Q518 215 518 233Q518 251 507.0 262.0Q496 273 477 273H316Z"/>
  <path d="M724.0 0V700H1004.0V232H1312.0V0Z"/>
  <path d="M1183.0 0 1443.0 700H1803.0L2063.0 0H1777.0L1744.0 109H1504.0L1469.0 0ZM1580.0 350 1558.0 281H1693.0L1672.0 350L1636.0 501H1618.0Z"/>
  <path d="M2281.0 -16Q2220.0 -16 2160.5 5.5Q2101.0 27 2052.0 69.0Q2003.0 111 1974.0 174.0Q1945.0 237 1945.0 320V381Q1945.0 485 1997.5 560.0Q2050.0 635 2143.0 675.5Q2236.0 716 2356.0 716Q2450.0 716 2532.0 689.0Q2614.0 662 2672.0 606.5Q2730.0 551 2751.0 464L2469.0 411Q2459.0 454 2425.0 473.0Q2391.0 492 2354.0 492Q2307.0 492 2273.0 463.5Q2239.0 435 2239.0 381V320Q2239.0 263 2276.5 228.5Q2314.0 194 2372.0 194Q2415.0 194 2449.0 213.0Q2483.0 232 2494.0 266H2347.0V380H2755.0V0H2519.0L2528.0 116H2510.0Q2496.0 72 2460.5 42.5Q2425.0 13 2378.0 -1.5Q2331.0 -16 2281.0 -16Z"/>
  <path d="M3062.0 -16Q2883.0 -16 2786.0 62.5Q2689.0 141 2689.0 286V700H2969.0V307Q2969.0 198 3062.0 198Q3155.0 198 3155.0 307V700H3435.0V286Q3435.0 141 3338.0 62.5Q3241.0 -16 3062.0 -16Z"/>
  <path d="M3379.0 0V700H4037.0V498H3659.0V436H3929.0V264H3659.0V202H4037.0V0Z"/>
</g>
</svg>